<?xml version="1.0" encoding="UTF-8"?>
<svg width="103px" height="50px" viewBox="0 0 103 50" version="1.1"
    xmlns="http://www.w3.org/2000/svg">
    <!-- Generator: sketchtool 51.3 (57544) - http://www.bohemiancoding.com/sketch -->
    <title>1A3EE1D3-5F93-426C-BDEB-EFF9ACA3081C</title>
    <desc>Created with sketchtool.</desc>
    <defs></defs>
    <g id="redesign" stroke="none" stroke-width="1" fill="none" fill-rule="evenodd">
        <g id="main" transform="translate(-386.000000, -15.000000)">
            <g id="header-copy-5" transform="translate(386.000000, 15.000000)">
                <g id="header">
                    <g id="aqsi_logo_light">
                        <path
                            d="M26.3042367,14.8483568 L26.3042367,36.9147346 C26.3042367,38.5430424 24.9779726,39.8906074 23.3754036,39.8906074 C21.9386175,39.8906074 20.8333975,38.8237851 20.5018315,37.47622 C18.4019135,38.9922307 15.9151684,39.8906074 13.1521183,39.8906074 C9.39437024,39.8906074 6.13397115,38.3184482 3.75774809,35.7917637 C1.38152503,33.2089307 0,29.7277209 0,25.9096199 C0,22.0353704 1.38152503,18.5541607 3.75774809,16.0274762 C6.13397115,13.4446432 9.39437024,11.8163354 13.1521183,11.8163354 C15.9151684,11.8163354 18.4019135,12.7708606 20.5018315,14.2868713 C20.8333975,12.8831577 21.9386175,11.8163354 23.3754036,11.8163354 C24.9779726,11.8163354 26.3042367,13.1639004 26.3042367,14.8483568 Z M18.2913915,31.69292 C19.6176555,30.2330578 20.4465705,28.2117103 20.4465705,25.9096199 C20.4465705,23.5513811 19.6176555,21.5300335 18.2913915,20.1263199 C16.9651274,18.6103092 15.0862534,17.8242296 13.1521183,17.8242296 C11.1627223,17.8242296 9.28384823,18.6103092 8.0128452,20.1263199 C6.68658117,21.5300335 5.91292715,23.5513811 5.91292715,25.9096199 C5.91292715,28.2117103 6.68658117,30.2330578 8.0128452,31.69292 C9.28384823,33.0966336 11.1627223,33.8827132 13.1521183,33.8827132 C15.0862534,33.8827132 16.9651274,33.0966336 18.2913915,31.69292 Z M73.0484118,36.0163579 C71.8326698,35.0056841 71.6668868,33.0966336 72.6615848,31.8613656 C73.6562828,30.5138006 75.5904179,30.3453549 76.8061599,31.4121773 C78.2429459,32.6474452 80.729691,33.9388617 82.88487,33.8827132 C84.3769171,33.8827132 85.7584421,33.3773763 86.6426181,32.8158909 C87.4162722,32.1421083 87.6373162,31.5806229 87.6373162,31.1314345 C87.6373162,30.8506918 87.5820552,30.7383947 87.4715332,30.5699491 C87.4162722,30.4015035 87.1952282,30.1769093 86.7531401,29.8961666 C85.9794861,29.3346811 84.3216561,28.7170471 82.33226,28.3240073 L82.276999,28.3240073 C80.563908,27.9871161 78.9060779,27.5379277 77.4692919,26.8641452 C75.9772449,26.1342141 74.6509808,25.1235403 73.6562828,23.6075296 C73.0484118,22.5968558 72.7168458,21.3615879 72.7168458,20.0701714 C72.7168458,17.4873383 74.1536318,15.2975451 75.9772449,13.8938315 C77.9113799,12.5462665 80.232342,11.8163354 82.774348,11.8163354 C86.5873571,11.8163354 89.2951462,13.6692373 91.0634983,14.9045053 C92.3897623,15.802882 92.7765893,17.655784 91.9476743,19.0594976 C91.0634983,20.4070626 89.2398852,20.8001024 87.8583602,19.8455772 C86.0900081,18.6664578 84.5427001,17.7680811 82.774348,17.7680811 C81.392823,17.7680811 80.177081,18.2172694 79.458688,18.7787549 C78.7402949,19.2840917 78.5745119,19.7894286 78.5745119,20.0701714 C78.5745119,20.2947655 78.5745119,20.3509141 78.6850339,20.5193597 C78.7402949,20.6316568 78.9060779,20.856251 79.292905,21.0808452 C80.011298,21.5861821 81.448084,22.091519 83.3269581,22.4284102 L83.3822191,22.4845588 L83.4374801,22.4845588 C85.2610931,22.82145 86.9741841,23.3267869 88.5767532,24.1128665 C90.0688002,24.7866491 91.5608473,25.8534714 92.5002843,27.4256306 C93.1634163,28.5486015 93.5502433,29.840018 93.5502433,31.1314345 C93.5502433,33.8827132 92.0581963,36.1848035 90.0688002,37.6446657 C88.0794042,39.0483793 85.5926591,39.8906074 82.88487,39.8906074 C78.5745119,39.8344589 75.2588519,37.8131113 73.0484118,36.0163579 Z M99.8024116,11.8724839 C101.515503,11.8724839 102.786506,13.1639004 102.786506,14.9606539 L102.786506,36.858586 C102.786506,38.5430424 101.515503,39.8906074 99.8024116,39.8906074 C98.1445816,39.8906074 96.8183175,38.5430424 96.8183175,36.858586 L96.8183175,14.9606539 C96.8183175,13.1639004 98.1445816,11.8724839 99.8024116,11.8724839 Z M102.786506,3.61864796 L102.786506,4.79776738 C102.786506,6.48222371 101.515503,7.88593731 99.8024116,7.88593731 C98.1445816,7.88593731 96.8183175,6.48222371 96.8183175,4.79776738 L96.8183175,3.61864796 C96.8183175,1.93419164 98.1445816,0.58662658 99.8024116,0.58662658 C101.515503,0.58662658 102.786506,1.93419164 102.786506,3.61864796 Z"
                            id="aQsi-Copy-10" fill="#ffffff"></path>
                        <g id="Rectangle-2-Copy" transform="translate(30.107241, 0.000000)">
                            <g id="Group">
                                <path
                                    d="M11.6600713,39.7376719 C9.44963124,38.6682445 7.34971318,37.2048175 5.52610014,35.4599622 C2.15517905,31.6325377 0,26.4542575 0,20.7694064 C0,15.140841 2.15517905,10.0188465 5.52610014,6.24770762 C9.06280423,2.36399748 13.9257723,0 19.3413505,0 C24.7569286,0 29.6751577,2.36399748 33.0460788,6.24770762 C36.5827829,10.0188465 38.682701,15.140841 38.682701,20.7694064 C38.682701,26.4542575 36.5827829,31.6325377 33.0460788,35.4599622 C31.3329878,37.2611031 29.2330697,38.7808158 26.9121077,39.9065289 L25.6411046,40.4130997 C23.5855781,40.2929765 18.9252337,40.0678339 11.6600713,39.7376719 Z M6.52079816,20.7694064 C6.52079816,24.7656879 7.9575842,28.3116841 10.3338073,30.9008242 C12.5995083,33.4336786 15.7493854,34.9533913 19.3413505,34.9533913 C22.8780546,34.9533913 26.0279317,33.4336786 28.4594157,30.9008242 C30.8356388,28.3116841 32.2724248,24.7656879 32.2724248,20.7694064 C32.2724248,16.773125 30.8356388,13.2271287 28.4594157,10.75056 C26.0279317,8.16141986 22.8780546,6.6417072 19.3413505,6.6417072 C15.7493854,6.6417072 12.5995083,8.16141986 10.3338073,10.75056 C7.9575842,13.2271287 6.52079816,16.773125 6.52079816,20.7694064 Z"
                                    id="Q" fill="#ffffff"></path>
                                <path
                                    d="M13.208162,42.9639695 C15.0328124,42.0916935 16.9610411,41.6555556 18.9928479,41.6555556 C22.0405582,41.6555556 27.6683074,45.8158257 31.7448615,45.8158257 C34.4625642,45.8158257 36.9530116,44.9670191 39.2162037,43.2694057"
                                    id="Path-2" stroke="#1984e3" stroke-width="6.54767726"
                                    stroke-linecap="round" stroke-linejoin="round"></path>
                            </g>
                        </g>
                    </g>
                </g>
            </g>
        </g>
    </g>
</svg>